<svg xmlns="http://www.w3.org/2000/svg" version="1.1" viewBox="-5.0 -10.0 110.0 135.0">
 <g>
  <path d="m50 71c-11.578 0-21-9.4219-21-21s9.4219-21 21-21 21 9.4219 21 21-9.4219 21-21 21zm0-36c-8.2695 0-15 6.7305-15 15s6.7305 15 15 15 15-6.7305 15-15-6.7305-15-15-15z"/>
  <path d="m92.215 35.008-10.371-0.74219c-2.3594-0.16797-4.5078-1.1836-5.8867-2.7812-6.3047-7.2969-15.766-11.484-25.957-11.484s-19.652 4.1875-25.953 11.484c-1.3789 1.5977-3.5273 2.6133-5.8867 2.7812l-10.375 0.74219c-1.5703 0.11328-2.7852 1.418-2.7852 2.9922v24c0 1.5742 1.2148 2.8789 2.7852 2.9922l10.371 0.74219c2.3594 0.17188 4.5078 1.1836 5.8867 2.7812 6.3047 7.2969 15.766 11.484 25.957 11.484s19.652-4.1875 25.957-11.484c1.3789-1.6016 3.5234-2.6133 5.8867-2.7812l10.371-0.74219c1.5703-0.11328 2.7852-1.418 2.7852-2.9922v-24c0-1.5742-1.2148-2.8789-2.7852-2.9922zm-10.801 24.742c-3.9414 0.28125-7.5859 2.0469-10 4.8477-5.1641 5.9727-12.969 9.4023-21.414 9.4023s-16.25-3.4297-21.41-9.4023c-2.4141-2.7969-6.0586-4.5625-10.004-4.8477l-7.5859-0.54297v-6.207h6c1.6562 0 3-1.3438 3-3s-1.3438-3-3-3h-6v-6.207l7.5859-0.54297c3.9414-0.28125 7.5859-2.0469 10-4.8477 5.1602-5.9727 12.965-9.4023 21.414-9.4023s16.254 3.4297 21.414 9.4062c2.4141 2.7969 6.0586 4.5625 10 4.8477l7.5859 0.53906v6.207h-6c-1.6562 0-3 1.3438-3 3s1.3438 3 3 3h6v6.207z"/>
  <path d="m60.102 49.777-0.99219 6.9609c-0.0625 0.4375-0.4375 0.76562-0.87891 0.76562l-16.461-0.003906c-0.44141 0-0.81641-0.32422-0.87891-0.76562l-0.99219-6.9609c-1.1094-0.4375-1.8984-1.5078-1.8984-2.7734 0-1.6562 1.3438-3 3-3s3 1.3438 3 3c0 1.0117-0.53125 1.8594-1.2969 2.4023l2.7969 2.0977 2.7305-3.6406c-0.72656-0.54688-1.2305-1.3789-1.2305-2.3594 0-1.6562 1.3438-3 3-3s3 1.3438 3 3c0 0.98047-0.50391 1.8125-1.2305 2.3594l2.7305 3.6406 2.7969-2.0977c-0.76562-0.54297-1.2969-1.3906-1.2969-2.4023 0-1.6562 1.3438-3 3-3s3 1.3438 3 3c0 1.2656-0.78906 2.3359-1.8984 2.7773z"/>
 </g>
<text x="0.0" y="117.5" font-size="5.0" font-weight="bold" font-family="Arbeit Regular, Helvetica, Arial-Unicode, Arial, Sans-serif" fill="#000000">Created by Ayub Irawan</text><text x="0.0" y="122.5" font-size="5.0" font-weight="bold" font-family="Arbeit Regular, Helvetica, Arial-Unicode, Arial, Sans-serif" fill="#000000">from Noun Project</text></svg>