<svg xmlns:inkscape="http://www.inkscape.org/namespaces/inkscape" xmlns:sodipodi="http://sodipodi.sourceforge.net/DTD/sodipodi-0.dtd" xmlns="http://www.w3.org/2000/svg" xmlns:svg="http://www.w3.org/2000/svg" viewBox="0 0 16.933333 21.166666250000002" version="1.1" x="0px" y="0px"><g transform="translate(851.24347,348.81778)"><path style="" d="M -844.25837 -343.80827 A 2.3847057 2.3847057 0 0 0 -845.94457 -343.11012 L -846.52334 -342.53134 A 2.384677 2.384677 0 0 1 -848.20955 -341.83268 L -850.18514 -341.83268 L -850.18514 -338.86955 L -848.20955 -338.86955 A 2.384677 2.384677 0 0 1 -846.52334 -338.17088 L -845.94457 -337.59211 A 2.3847057 2.3847057 0 0 0 -844.25837 -336.89396 L -841.29524 -336.89396 A 2.3847056 2.3847056 0 0 0 -839.60904 -337.59211 L -839.03026 -338.17088 A 2.3847036 2.3847036 0 0 1 -837.34406 -338.86955 L -835.36847 -338.86955 L -835.36847 -341.83268 L -837.34406 -341.83268 A 2.3847036 2.3847036 0 0 1 -839.03026 -342.53134 L -839.60904 -343.11012 A 2.3847056 2.3847056 0 0 0 -841.29524 -343.80827 L -844.25837 -343.80827 z M -843.94107 -343.29925 L -841.61253 -343.29925 A 1.8736973 2.0333875 0 0 1 -840.28755 -342.70342 L -839.83331 -342.20991 A 1.8736957 2.0333857 0 0 0 -839.33722 -341.82544 L -839.33722 -338.87678 A 1.8736957 2.0333857 0 0 0 -839.83331 -338.49231 L -840.28755 -337.9988 A 1.8736973 2.0333875 0 0 1 -841.61253 -337.40297 L -843.94107 -337.40297 A 1.8736973 2.0333875 0 0 1 -845.26606 -337.9988 L -845.72029 -338.49231 A 1.8736748 2.0333631 0 0 0 -846.21639 -338.87678 L -846.21639 -341.82544 A 1.8736748 2.0333631 0 0 0 -845.72029 -342.20991 L -845.26606 -342.70342 A 1.8736973 2.0333875 0 0 1 -843.94107 -343.29925 z M -842.76957 -342.37838 L -843.28943 -340.84876 L -844.90484 -340.84204 L -843.61138 -339.87466 L -844.10385 -338.33677 L -842.78404 -339.26798 L -841.47352 -338.32385 L -841.95153 -339.86691 L -840.64877 -340.82189 L -842.26366 -340.84411 L -842.76957 -342.37838 z M -845.70221 -341.65749 A 0.21497397 0.21497397 0 0 0 -845.91718 -341.44252 A 0.21497397 0.21497397 0 0 0 -845.70221 -341.22755 A 0.21497397 0.21497397 0 0 0 -845.48723 -341.44252 A 0.21497397 0.21497397 0 0 0 -845.70221 -341.65749 z M -839.8514 -341.65749 A 0.21497397 0.21497397 0 0 0 -840.06637 -341.44252 A 0.21497397 0.21497397 0 0 0 -839.8514 -341.22755 A 0.21497397 0.21497397 0 0 0 -839.63643 -341.44252 A 0.21497397 0.21497397 0 0 0 -839.8514 -341.65749 z M -849.26995 -341.39188 L -847.71552 -341.39188 C -847.51602 -341.39188 -847.35534 -341.16221 -847.35534 -340.87718 L -847.35534 -339.82505 C -847.35534 -339.54002 -847.51602 -339.31035 -847.71552 -339.31035 L -849.26995 -339.31035 C -849.46946 -339.31035 -849.62962 -339.54002 -849.62962 -339.82505 L -849.62962 -340.87718 C -849.62962 -341.16221 -849.46946 -341.39188 -849.26995 -341.39188 z M -837.83809 -341.39188 L -836.28366 -341.39188 C -836.08416 -341.39188 -835.92399 -341.16221 -835.92399 -340.87718 L -835.92399 -339.82505 C -835.92399 -339.54002 -836.08416 -339.31035 -836.28366 -339.31035 L -837.83809 -339.31035 C -838.0376 -339.31035 -838.19827 -339.54002 -838.19827 -339.82505 L -838.19827 -340.87718 C -838.19827 -341.16221 -838.0376 -341.39188 -837.83809 -341.39188 z M -848.49067 -340.91749 L -848.63588 -340.49012 L -849.08701 -340.48806 L -848.72579 -340.21831 L -848.86325 -339.78836 L -848.4948 -340.04829 L -848.12841 -339.78474 L -848.26226 -340.21572 L -847.89845 -340.48237 L -848.34959 -340.48857 L -848.49067 -340.91749 z M -837.05881 -340.91749 L -837.20402 -340.49012 L -837.65515 -340.48806 L -837.29393 -340.21831 L -837.43191 -339.78836 L -837.06294 -340.04829 L -836.69707 -339.78474 L -836.8304 -340.21572 L -836.46659 -340.48237 L -836.91773 -340.48857 L -837.05881 -340.91749 z M -845.70221 -340.56609 A 0.21497397 0.21497397 0 0 0 -845.91718 -340.35111 A 0.21497397 0.21497397 0 0 0 -845.70221 -340.13614 A 0.21497397 0.21497397 0 0 0 -845.48723 -340.35111 A 0.21497397 0.21497397 0 0 0 -845.70221 -340.56609 z M -839.8514 -340.56609 A 0.21497397 0.21497397 0 0 0 -840.06637 -340.35111 A 0.21497397 0.21497397 0 0 0 -839.8514 -340.13614 A 0.21497397 0.21497397 0 0 0 -839.63643 -340.35111 A 0.21497397 0.21497397 0 0 0 -839.8514 -340.56609 z M -845.70221 -339.47468 A 0.21497397 0.21497397 0 0 0 -845.91718 -339.25971 A 0.21497397 0.21497397 0 0 0 -845.70221 -339.04473 A 0.21497397 0.21497397 0 0 0 -845.48723 -339.25971 A 0.21497397 0.21497397 0 0 0 -845.70221 -339.47468 z M -839.8514 -339.47468 A 0.21497397 0.21497397 0 0 0 -840.06637 -339.25971 A 0.21497397 0.21497397 0 0 0 -839.8514 -339.04473 A 0.21497397 0.21497397 0 0 0 -839.63643 -339.25971 A 0.21497397 0.21497397 0 0 0 -839.8514 -339.47468 z " fill="#000000" stroke-width="0.987776"/></g><text x="0" y="31.933333" fill="#000000" font-size="5px" font-weight="bold" font-family="'Helvetica Neue', Helvetica, Arial-Unicode, Arial, Sans-serif">Created by Cuan Studio</text><text x="0" y="36.933333000000005" fill="#000000" font-size="5px" font-weight="bold" font-family="'Helvetica Neue', Helvetica, Arial-Unicode, Arial, Sans-serif">from the Noun Project</text></svg>