<svg xmlns="http://www.w3.org/2000/svg" version="1.1" viewBox="-5.0 -10.0 110.0 135.0">
 <g>
  <path d="m82.25 52.25c-1.2422 0-2.25-1.0078-2.25-2.25s1.0078-2.25 2.25-2.25h9.75v-8.3516c0-0.78516-0.60938-1.4414-1.3945-1.4961l-8.9805-0.64062c-3.0352-0.21875-5.9531-1.5117-7.9453-3.8125-5.4805-6.3555-14.047-10.449-23.68-10.449s-18.199 4.0938-23.684 10.445c-1.9883 2.3047-4.9062 3.5977-7.9453 3.8125l-8.9766 0.64063c-0.78516 0.058593-1.3945 0.71094-1.3945 1.5v8.3516h9.75c1.2422 0 2.25 1.0078 2.25 2.25s-1.0078 2.25-2.25 2.25h-9.75v8.3516c0 0.78516 0.60938 1.4414 1.3945 1.4961l8.9805 0.64062c3.0352 0.21875 5.9531 1.5117 7.9453 3.8125 5.4805 6.3555 14.047 10.449 23.68 10.449s18.199-4.0938 23.684-10.445c1.9883-2.3047 4.9062-3.5977 7.9453-3.8125l8.9805-0.64063c0.78125-0.058593 1.3906-0.71094 1.3906-1.5v-8.3516zm-32.25 15.75c-9.9414 0-18-8.0586-18-18s8.0586-18 18-18 18 8.0586 18 18-8.0586 18-18 18z"/>
  <path d="m62 47c0 1.2656-0.78906 2.3359-1.8984 2.7773l-0.99219 6.9609c-0.0625 0.4375-0.4375 0.76562-0.87891 0.76562l-16.461-0.003906c-0.44141 0-0.81641-0.32422-0.87891-0.76562l-0.99219-6.9609c-1.1094-0.4375-1.8984-1.5078-1.8984-2.7734 0-1.6562 1.3438-3 3-3s3 1.3438 3 3c0 1.0117-0.53125 1.8594-1.2969 2.4023l2.7969 2.0977 2.7305-3.6406c-0.72656-0.54688-1.2305-1.3789-1.2305-2.3594 0-1.6562 1.3438-3 3-3s3 1.3438 3 3c0 0.98047-0.50391 1.8125-1.2305 2.3594l2.7305 3.6406 2.7969-2.0977c-0.76562-0.54297-1.2969-1.3906-1.2969-2.4023 0-1.6562 1.3438-3 3-3s3 1.3438 3 3z"/>
 </g>
<text x="0.0" y="117.5" font-size="5.0" font-weight="bold" font-family="Arbeit Regular, Helvetica, Arial-Unicode, Arial, Sans-serif" fill="#000000">Created by Ayub Irawan</text><text x="0.0" y="122.5" font-size="5.0" font-weight="bold" font-family="Arbeit Regular, Helvetica, Arial-Unicode, Arial, Sans-serif" fill="#000000">from Noun Project</text></svg>